<svg xmlns="http://www.w3.org/2000/svg" width="64" height="55">
    <path fill="#FFF" fill-rule="evenodd" d="M49 44c-1.657 0-3-1.343-3-3s1.343-3 3-3c4.971 0 9-4.029 9-9 0-2.68-1.178-5.08-3.037-6.728-.192-.17-.391-.331-.597-.485l-.04-.03c-.194-.144-.395-.278-.601-.406l-.096-.059c-.191-.115-.388-.224-.588-.326l-.167-.08c-.184-.089-.371-.172-.561-.249-.083-.032-.168-.061-.252-.092-.171-.062-.343-.123-.519-.175-.116-.034-.236-.062-.354-.091-.152-.038-.303-.079-.457-.109-.162-.031-.328-.052-.493-.075-.119-.016-.236-.039-.356-.05-.29-.028-.584-.045-.882-.045-.094 0-.185.011-.278.014-.091-.513-.207-1.016-.342-1.512-.034-.121-.079-.237-.114-.357-.112-.375-.227-.748-.364-1.111-.041-.11-.092-.215-.135-.324-.148-.37-.301-.737-.473-1.093-.042-.086-.09-.168-.133-.253-.189-.373-.384-.741-.599-1.097C43.595 9.318 38.192 6 32 6s-11.595 3.318-14.562 8.267c-.215.356-.411.724-.599 1.097-.043.085-.091.167-.133.253-.172.356-.325.723-.473 1.093-.043.109-.094.214-.135.324-.137.363-.252.736-.364 1.111-.036.12-.08.236-.114.357-.136.496-.251.999-.342 1.512-.093-.003-.184-.014-.278-.014-.298 0-.592.017-.882.045-.12.011-.237.034-.356.05-.165.023-.331.044-.493.075-.154.03-.305.071-.457.109-.118.029-.238.057-.354.091-.176.052-.348.113-.519.175-.084.031-.169.06-.252.092-.19.077-.377.16-.561.249l-.167.08c-.2.102-.397.211-.588.326l-.096.059c-.206.128-.407.262-.601.406l-.04.03c-.206.154-.405.315-.597.485C7.178 23.92 6 26.32 6 29c0 4.971 4.029 9 9 9 1.657 0 3 1.343 3 3s-1.343 3-3 3C6.716 44 0 37.284 0 29c0-6.758 4.47-12.468 10.613-14.345C13.952 6.086 22.248 0 32 0s18.048 6.086 21.387 14.655C59.53 16.532 64 22.242 64 29c0 8.284-6.716 15-15 15zm-28.23-7.007l.006-.006.006-.007 8.988-9.987.008.007c.549-.609 1.337-1 2.222-1s1.673.391 2.222 1l.008-.007 8.99 9.989.002.002.008.009c.418.465.693 1.061.756 1.72v.006c.009.092.014.185.014.279V39c0 1.657-1.343 3-3 3-.033 0-.065-.002-.097-.003l-.06-.001-.063-.005-.1-.008-.034-.005-.132-.018h-.002c-.687-.113-1.296-.458-1.742-.953L35 36.818V52c0 1.657-1.343 3-3 3s-3-1.343-3-3V36.818l-3.77 4.189c-.446.494-1.054.84-1.74.952l-.004.001c-.043.007-.087.013-.13.018l-.036.005-.098.008-.065.005-.057.001L23 42c-1.139 0-2.13-.635-2.638-1.57-.231-.425-.362-.912-.362-1.43 0-.772.292-1.475.77-2.007z"/>
</svg>
