<svg xmlns="http://www.w3.org/2000/svg" width="73" height="63">
    <path fill="#FFF" fill-rule="evenodd" d="M52.101.04c-5.398 0-9.725 1.933-13.542 5.738l-.006.006-.002.002-2.169 2.722-2.169-2.559-.007-.007-.001-.001C30.388 2.136 26.061.04 20.663.04S10.189 2.136 6.372 5.941C2.556 9.747.453 14.806.453 20.188c0 5.379 2.1 10.436 5.913 14.242L33.193 61.4c.844.847 1.991 1.324 3.189 1.324s2.346-.477 3.189-1.324l26.825-26.969c3.814-3.805 5.915-8.863 5.915-14.242 0-5.382-2.102-10.442-5.919-14.248C62.574 2.136 57.499.04 52.101.04z"/>
</svg>
