<svg xmlns="http://www.w3.org/2000/svg" width="21" height="20">
    <defs>
        <filter id="jeql4m6cta">
            <feFlood flood-color="#E4E4E4" flood-opacity="1" result="floodOut"/>
            <feComposite in="floodOut" in2="SourceGraphic" operator="atop" result="compOut"/>
            <feBlend in="compOut" in2="SourceGraphic"/>
        </filter>
    </defs>
    <g filter="url(#jeql4m6cta)">
        <path fill="#FFF" fill-rule="evenodd" d="M18.454 20H3.182C1.776 20 .636 18.881.636 17.5v-15c0-1.381 1.14-2.5 2.546-2.5h15.272C19.86 0 21 1.119 21 2.5v15c0 1.381-1.14 2.5-2.546 2.5zM10.818 6.125c-1.587 0-2.952.922-3.578 2.25h-.004l-.017.042c-.037.083-.071.167-.102.252-.015.04-.032.08-.046.121-.029.087-.053.176-.075.266-.011.041-.024.082-.033.125-.021.094-.035.191-.049.287-.005.039-.014.077-.018.117-.015.136-.023.275-.023.415 0 2.14 1.766 3.875 3.945 3.875S14.764 12.14 14.764 10c0-.14-.009-.279-.024-.415-.004-.04-.012-.078-.018-.117-.013-.096-.028-.193-.049-.287-.009-.043-.022-.084-.032-.125-.023-.09-.047-.179-.076-.266-.014-.041-.03-.081-.045-.121-.032-.085-.065-.169-.103-.252l-.017-.042h-.004c-.626-1.328-1.991-2.25-3.578-2.25zm7.891-2.875c0-.553-.456-1-1.018-1h-2.036c-.563 0-1.019.447-1.019 1v2c0 .552.456 1 1.019 1h2.036c.562 0 1.018-.448 1.018-1v-2zm0 5.125h-1.877c.145.517.222 1.062.222 1.625 0 3.382-2.792 6.125-6.236 6.125S4.582 13.382 4.582 10c0-.563.077-1.108.222-1.625H2.927v8.375c0 .552.456 1 1.018 1h13.746c.562 0 1.018-.448 1.018-1V8.375z"/>
    </g>
</svg>
