<svg xmlns="http://www.w3.org/2000/svg" width="64" height="54">
    <path fill="#FFF" fill-rule="evenodd" d="M62.708 18.466l-.03.021-.001.001-25.969 17.979-.002-.003c-.485.337-1.071.536-1.706.536-.616 0-1.187-.187-1.663-.505l-.001.001-.011-.007-.004-.003L19.9 27.539 6 35.716V48h55c1.657 0 3 1.343 3 3s-1.343 3-3 3H3c-1.657 0-3-1.343-3-3V3c0-1.657 1.343-3 3-3s3 1.343 3 3v25.755l12.479-7.341.006.01c.446-.263.959-.424 1.515-.424.616 0 1.187.187 1.664.505v-.001l.011.007.004.003 13.289 8.859 24.324-16.84.002.003C59.779 13.2 60.365 13 61 13c1.657 0 3 1.343 3 3 0 1.022-.513 1.922-1.294 2.464l.002.002z"/>
</svg>
