<svg xmlns="http://www.w3.org/2000/svg" width="19" height="13">
    <defs>
        <filter id="4f90kxcnja">
            <feFlood flood-color="#323232" flood-opacity="1" result="floodOut"/>
            <feComposite in="floodOut" in2="SourceGraphic" operator="atop" result="compOut"/>
            <feBlend in="compOut" in2="SourceGraphic"/>
        </filter>
    </defs>
    <g filter="url(#4f90kxcnja)">
        <path fill="#FFF" fill-rule="evenodd" d="M12.95 5.832L18.735.256c.163.16.265.383.265.63v11.227c0 .234-.092.444-.24.602l-5.81-6.883zM.296.23C.454.088.661 0 .891 0h17.218c.23 0 .437.088.595.23L9.5 7.386.296.23zM.24 12.715c-.148-.158-.24-.368-.24-.602V.886c0-.247.102-.47.265-.63L6.05 5.832.24 12.715zM9.5 9.159l2.415-2.328 6.805 5.925c-.16.15-.374.244-.611.244H.891c-.237 0-.451-.094-.611-.244l6.805-5.925L9.5 9.159z"/>
    </g>
</svg>
